Nobile-Rename.ufo
<glyph name="quotedbl" format="1">
  <advance width="1149"/>
  <unicode hex="0022"/>
  <outline>
    <contour>
      <point x="226" y="816" type="line"/>
      <point x="434" y="816" type="line"/>
      <point x="510" y="1483" type="line"/>
      <point x="510" y="1578" type="line"/>
      <point x="136" y="1578" type="line"/>
      <point x="136" y="1483" type="line"/>
    </contour>
    <contour>
      <point x="735" y="816" type="line"/>
      <point x="943" y="816" type="line"/>
      <point x="1039" y="1483" type="line"/>
      <point x="1039" y="1578" type="line"/>
      <point x="665" y="1578" type="line"/>
      <point x="665" y="1483" type="line"/>
    </contour>
  </outline>
</glyph>
<glyph name="ampersand" format="1">
  <advance width="1779"/>
  <unicode hex="0026"/>
  <outline>
    <contour>
      <point x="1595" y="-72" type="line"/>
      <point x="1767" y="144" type="line"/>
      <point x="1504" y="364" type="line"/>
      <point x="1567" y="471"/>
      <point x="1620" y="646"/>
      <point x="1620" y="848" type="curve"/>
      <point x="1355" y="858" type="line"/>
      <point x="1355" y="767"/>
      <point x="1322" y="603"/>
      <point x="1282" y="543" type="curve"/>
      <point x="961" y="823" type="line"/>
      <point x="1183" y="972"/>
      <point x="1252" y="1090"/>
      <point x="1252" y="1273" type="curve" smooth="yes"/>
      <point x="1252" y="1444"/>
      <point x="1065" y="1596"/>
      <point x="773" y="1596" type="curve" smooth="yes"/>
      <point x="461" y="1596"/>
      <point x="288" y="1447"/>
      <point x="288" y="1255" type="curve" smooth="yes"/>
      <point x="288" y="1072"/>
      <point x="372" y="973"/>
      <point x="518" y="865" type="curve"/>
      <point x="384" y="775"/>
      <point x="160" y="657"/>
      <point x="160" y="389" type="curve" smooth="yes"/>
      <point x="160" y="85"/>
      <point x="428" y="-18"/>
      <point x="776" y="-18" type="curve" smooth="yes"/>
      <point x="1072" y="-18"/>
      <point x="1217" y="58"/>
      <point x="1334" y="162" type="curve"/>
    </contour>
    <contour>
      <point x="838" y="262" type="curve" smooth="yes"/>
      <point x="644" y="262"/>
      <point x="563" y="347"/>
      <point x="563" y="441" type="curve" smooth="yes"/>
      <point x="563" y="540"/>
      <point x="626" y="616"/>
      <point x="721" y="675" type="curve"/>
      <point x="1116" y="334" type="line"/>
      <point x="1031" y="282"/>
      <point x="934" y="262"/>
    </contour>
    <contour>
      <point x="758" y="996" type="curve"/>
      <point x="688" y="1040"/>
      <point x="616" y="1127"/>
      <point x="616" y="1228" type="curve" smooth="yes"/>
      <point x="616" y="1305"/>
      <point x="662" y="1356"/>
      <point x="785" y="1356" type="curve" smooth="yes"/>
      <point x="897" y="1356"/>
      <point x="950" y="1308"/>
      <point x="950" y="1219" type="curve" smooth="yes"/>
      <point x="950" y="1107"/>
      <point x="845" y="1041"/>
    </contour>
  </outline>
</glyph>
<glyph name="asterisk" format="1">
  <advance width="1010"/>
  <unicode hex="002A"/>
  <outline>
    <contour>
      <point x="398" y="778" type="curve"/>
      <point x="423" y="822"/>
      <point x="393" y="767"/>
      <point x="530" y="1005" type="curve"/>
      <point x="661" y="775" type="line"/>
      <point x="854" y="893" type="line"/>
      <point x="716" y="1137" type="line"/>
      <point x="975" y="1137" type="line"/>
      <point x="975" y="1322" type="line"/>
      <point x="711" y="1322" type="line"/>
      <point x="857" y="1574" type="line"/>
      <point x="779" y="1620"/>
      <point x="745" y="1639"/>
      <point x="666" y="1686" type="curve"/>
      <point x="626" y="1620"/>
      <point x="641" y="1655"/>
      <point x="525" y="1454" type="curve"/>
      <point x="388" y="1685" type="line"/>
      <point x="202" y="1580" type="line"/>
      <point x="346" y="1322" type="line"/>
      <point x="58" y="1322" type="line"/>
      <point x="58" y="1137" type="line"/>
      <point x="346" y="1137" type="line"/>
      <point x="206" y="893" type="line"/>
      <point x="284" y="847"/>
      <point x="319" y="826"/>
    </contour>
  </outline>
</glyph>
<glyph name="one" format="1">
  <advance width="1013"/>
  <unicode hex="0031"/>
  <outline>
    <contour>
      <point x="377" y="0" type="line"/>
      <point x="787" y="0" type="line"/>
      <point x="787" y="1162" type="line"/>
      <point x="402" y="1162" type="line"/>
      <point x="81" y="1008" type="line"/>
      <point x="191" y="747" type="line"/>
      <point x="377" y="831" type="line"/>
    </contour>
  </outline>
</glyph>
<glyph name="eight" format="1">
  <advance width="1352"/>
  <unicode hex="0038"/>
  <outline>
    <contour>
      <point x="674" y="-149" type="curve" smooth="yes"/>
      <point x="946" y="-149"/>
      <point x="1206" y="-31"/>
      <point x="1206" y="262" type="curve" smooth="yes"/>
      <point x="1206" y="441"/>
      <point x="1039" y="567"/>
      <point x="905" y="573" type="curve"/>
      <point x="1056" y="595"/>
      <point x="1169" y="734"/>
      <point x="1169" y="894" type="curve" smooth="yes"/>
      <point x="1169" y="1142"/>
      <point x="964" y="1289"/>
      <point x="674" y="1289" type="curve" smooth="yes"/>
      <point x="387" y="1289"/>
      <point x="184" y="1144"/>
      <point x="184" y="894" type="curve" smooth="yes"/>
      <point x="184" y="732"/>
      <point x="299" y="595"/>
      <point x="447" y="573" type="curve"/>
      <point x="317" y="565"/>
      <point x="146" y="443"/>
      <point x="146" y="264" type="curve" smooth="yes"/>
      <point x="146" y="-31"/>
      <point x="402" y="-149"/>
    </contour>
    <contour>
      <point x="674" y="164" type="curve" smooth="yes"/>
      <point x="570" y="164"/>
      <point x="524" y="199"/>
      <point x="524" y="283" type="curve" smooth="yes"/>
      <point x="524" y="394"/>
      <point x="571" y="455"/>
      <point x="674" y="455" type="curve" smooth="yes"/>
      <point x="778" y="455"/>
      <point x="828" y="398"/>
      <point x="828" y="284" type="curve" smooth="yes"/>
      <point x="828" y="199"/>
      <point x="781" y="164"/>
    </contour>
    <contour>
      <point x="674" y="748" type="curve" smooth="yes"/>
      <point x="573" y="748"/>
      <point x="549" y="775"/>
      <point x="549" y="875" type="curve" smooth="yes"/>
      <point x="549" y="942"/>
      <point x="573" y="989"/>
      <point x="674" y="989" type="curve" smooth="yes"/>
      <point x="774" y="989"/>
      <point x="803" y="944"/>
      <point x="803" y="876" type="curve" smooth="yes"/>
      <point x="803" y="775"/>
      <point x="777" y="748"/>
    </contour>
  </outline>
</glyph>
<glyph name="less" format="1">
  <advance width="1541"/>
  <unicode hex="003C"/>
  <outline>
    <contour>
      <point x="1221" y="73" type="line"/>
      <point x="1386" y="340" type="line"/>
      <point x="723" y="753" type="line"/>
      <point x="1386" y="1166" type="line"/>
      <point x="1221" y="1433" type="line"/>
      <point x="109" y="753" type="line"/>
    </contour>
  </outline>
</glyph>
<glyph name="F" format="1">
  <advance width="1262"/>
  <unicode hex="0046"/>
  <outline>
    <contour>
      <point x="176" y="0" type="line"/>
      <point x="610" y="0" type="line"/>
      <point x="610" y="614" type="line"/>
      <point x="1168" y="614" type="line"/>
      <point x="1168" y="882" type="line"/>
      <point x="610" y="882" type="line"/>
      <point x="610" y="1261" type="line"/>
      <point x="1216" y="1261" type="line"/>
      <point x="1216" y="1578" type="line"/>
      <point x="176" y="1578" type="line"/>
    </contour>
    <contour>
      <point x="764" y="1578" type="move" name="top"/>
    </contour>
  </outline>
</glyph>
<glyph name="G" format="1">
  <advance width="1589"/>
  <unicode hex="0047"/>
  <outline>
    <contour>
      <point x="792" y="-22" type="curve" smooth="yes"/>
      <point x="985" y="-22"/>
      <point x="1101" y="77"/>
      <point x="1126" y="156" type="curve"/>
      <point x="1174" y="0" type="line"/>
      <point x="1442" y="0" type="line"/>
      <point x="1442" y="905" type="line"/>
      <point x="873" y="905" type="line"/>
      <point x="873" y="644" type="line"/>
      <point x="1092" y="644" type="line"/>
      <point x="1092" y="321" type="line"/>
      <point x="1017" y="298"/>
      <point x="938" y="283"/>
      <point x="871" y="283" type="curve" smooth="yes"/>
      <point x="681" y="283"/>
      <point x="539" y="399"/>
      <point x="539" y="763" type="curve" smooth="yes"/>
      <point x="539" y="1147"/>
      <point x="676" y="1293"/>
      <point x="897" y="1296" type="curve" smooth="yes"/>
      <point x="1062" y="1298"/>
      <point x="1177" y="1245"/>
      <point x="1294" y="1180" type="curve"/>
      <point x="1406" y="1453" type="line"/>
      <point x="1252" y="1544"/>
      <point x="1062" y="1602"/>
      <point x="876" y="1602" type="curve" smooth="yes"/>
      <point x="470" y="1602"/>
      <point x="98" y="1379"/>
      <point x="98" y="764" type="curve" smooth="yes"/>
      <point x="98" y="227"/>
      <point x="404" y="-22"/>
    </contour>
    <contour>
      <point x="883" y="1578" type="move" name="top"/>
    </contour>
    <contour>
      <point x="830" y="0" type="move" name="bot"/>
    </contour>
  </outline>
</glyph>
<glyph name="I" format="1">
  <advance width="1012"/>
  <unicode hex="0049"/>
  <outline>
    <contour>
      <point x="118" y="0" type="line"/>
      <point x="894" y="0" type="line"/>
      <point x="894" y="288" type="line"/>
      <point x="724" y="288" type="line"/>
      <point x="724" y="1292" type="line"/>
      <point x="894" y="1292" type="line"/>
      <point x="894" y="1578" type="line"/>
      <point x="118" y="1578" type="line"/>
      <point x="118" y="1292" type="line"/>
      <point x="288" y="1292" type="line"/>
      <point x="288" y="288" type="line"/>
      <point x="118" y="288" type="line"/>
    </contour>
    <contour>
      <point x="502" y="1578" type="move" name="top"/>
    </contour>
    <contour>
      <point x="559" y="0" type="move" name="ogonek"/>
    </contour>
  </outline>
</glyph>
<glyph name="V" format="1">
  <advance width="1643"/>
  <unicode hex="0056"/>
  <outline>
    <contour>
      <point x="616" y="0" type="line"/>
      <point x="1028" y="0" type="line"/>
      <point x="1599" y="1578" type="line"/>
      <point x="1179" y="1578" type="line"/>
      <point x="822" y="509" type="line"/>
      <point x="464" y="1578" type="line"/>
      <point x="44" y="1578" type="line"/>
    </contour>
  </outline>
</glyph>
<glyph name="d" format="1">
  <advance width="1410"/>
  <unicode hex="0064"/>
  <outline>
    <contour>
      <point x="575" y="-18" type="curve" smooth="yes"/>
      <point x="716.636" y="-18"/>
      <point x="836.48" y="45.0203"/>
      <point x="928.459" y="125.835" type="curve"/>
      <point x="984" y="-0.000104141" type="line"/>
      <point x="1270" y="-0.000104141" type="line"/>
      <point x="1270" y="1647" type="line"/>
      <point x="856" y="1578" type="line"/>
      <point x="856" y="1082.32" type="line"/>
      <point x="756.021" y="1150.18"/>
      <point x="643.841" y="1180"/>
      <point x="525" y="1180" type="curve" smooth="yes"/>
      <point x="268" y="1180"/>
      <point x="82" y="978"/>
      <point x="82" y="588" type="curve" smooth="yes"/>
      <point x="82" y="166"/>
      <point x="329" y="-18"/>
    </contour>
    <contour>
      <point x="702" y="232" type="curve" smooth="yes"/>
      <point x="610" y="232"/>
      <point x="494" y="303"/>
      <point x="494" y="585" type="curve" smooth="yes"/>
      <point x="494" y="852"/>
      <point x="565" y="924"/>
      <point x="666" y="924" type="curve" smooth="yes"/>
      <point x="726.831" y="924"/>
      <point x="785.892" y="907.48"/>
      <point x="856" y="853.292" type="curve"/>
      <point x="856" y="294.067" type="line"/>
      <point x="806.482" y="255.469"/>
      <point x="754.062" y="232"/>
    </contour>
    <contour>
      <point x="552" y="1162" type="move" name="top"/>
    </contour>
    <contour>
      <point x="1066" y="1382" type="move" name="mid"/>
    </contour>
    <contour>
      <point x="1189" y="1162" type="move" name="caron.alt"/>
    </contour>
  </outline>
</glyph>
<glyph name="f" format="1">
  <advance width="934"/>
  <unicode hex="0066"/>
  <outline>
    <contour>
      <point x="205" y="0" type="line"/>
      <point x="617" y="0" type="line"/>
      <point x="617" y="945" type="line"/>
      <point x="931" y="945" type="line"/>
      <point x="931" y="1162" type="line"/>
      <point x="617" y="1162" type="line"/>
      <point x="617" y="1226" type="line" smooth="yes"/>
      <point x="617" y="1338"/>
      <point x="686" y="1371"/>
      <point x="769" y="1371" type="curve" smooth="yes"/>
      <point x="819" y="1371"/>
      <point x="874" y="1360"/>
      <point x="923" y="1345" type="curve"/>
      <point x="980" y="1591" type="line"/>
      <point x="907" y="1638"/>
      <point x="783" y="1672"/>
      <point x="637" y="1672" type="curve" smooth="yes"/>
      <point x="446" y="1672"/>
      <point x="205" y="1587"/>
      <point x="205" y="1181" type="curve" smooth="yes"/>
      <point x="205" y="1162" type="line"/>
      <point x="14" y="1162" type="line"/>
      <point x="14" y="945" type="line"/>
      <point x="205" y="945" type="line"/>
    </contour>
    <contour>
      <point x="442" y="1578" type="move" name="top"/>
    </contour>
  </outline>
</glyph>
<glyph name="m" format="1">
  <advance width="2091"/>
  <unicode hex="006D"/>
  <outline>
    <contour>
      <point x="144" y="9.91821e-05" type="line"/>
      <point x="556" y="9.91821e-05" type="line"/>
      <point x="556" y="814.114" type="line"/>
      <point x="606.224" y="875.862"/>
      <point x="660.674" y="911.433"/>
      <point x="720" y="911" type="curve" smooth="yes"/>
      <point x="796" y="910"/>
      <point x="847" y="884"/>
      <point x="847" y="742" type="curve" smooth="yes"/>
      <point x="847" y="9.99712e-05" type="line"/>
      <point x="1259" y="9.99712e-05" type="line"/>
      <point x="1259" y="740" type="line" smooth="yes"/>
      <point x="1259" y="772.333"/>
      <point x="1257.33" y="802.341"/>
      <point x="1254.19" y="830.189" type="curve"/>
      <point x="1301.34" y="884.462"/>
      <point x="1353.9" y="911.425"/>
      <point x="1418" y="911" type="curve" smooth="yes"/>
      <point x="1494" y="910"/>
      <point x="1545" y="884"/>
      <point x="1545" y="742" type="curve" smooth="yes"/>
      <point x="1545" y="9.7587e-05" type="line"/>
      <point x="1957" y="9.7587e-05" type="line"/>
      <point x="1957" y="740" type="line" smooth="yes"/>
      <point x="1957" y="1123"/>
      <point x="1723" y="1180"/>
      <point x="1576" y="1180" type="curve" smooth="yes"/>
      <point x="1429.12" y="1180"/>
      <point x="1299.04" y="1114"/>
      <point x="1198.66" y="1014.56" type="curve"/>
      <point x="1119.36" y="1153.41"/>
      <point x="978.392" y="1180"/>
      <point x="878" y="1180" type="curve" smooth="yes"/>
      <point x="735.143" y="1180"/>
      <point x="608.168" y="1112.09"/>
      <point x="508.968" y="1014.82" type="curve"/>
      <point x="458" y="1162" type="line"/>
      <point x="144" y="1162" type="line"/>
    </contour>
    <contour>
      <point x="1182" y="1162" type="move" name="top"/>
    </contour>
  </outline>
</glyph>
<glyph name="t" format="1">
  <advance width="1026"/>
  <unicode hex="0074"/>
  <outline>
    <contour>
      <point x="676" y="-12" type="curve" smooth="yes"/>
      <point x="783" y="-12"/>
      <point x="891" y="11"/>
      <point x="982" y="48" type="curve"/>
      <point x="925" y="308" type="line"/>
      <point x="878" y="296"/>
      <point x="824" y="285"/>
      <point x="774" y="285" type="curve" smooth="yes"/>
      <point x="690" y="285"/>
      <point x="619" y="317"/>
      <point x="619" y="426" type="curve" smooth="yes"/>
      <point x="619" y="945" type="line"/>
      <point x="933" y="945" type="line"/>
      <point x="933" y="1162" type="line"/>
      <point x="619" y="1162" type="line"/>
      <point x="619" y="1612" type="line"/>
      <point x="246" y="1526" type="line"/>
      <point x="222" y="1162" type="line"/>
      <point x="16" y="1162" type="line"/>
      <point x="16" y="945" type="line"/>
      <point x="208" y="945" type="line"/>
      <point x="208" y="447" type="line" smooth="yes"/>
      <point x="208" y="105"/>
      <point x="437" y="-12"/>
    </contour>
    <contour>
      <point x="490" y="1568" type="move" name="caron.alt"/>
    </contour>
    <contour>
      <point x="402" y="1578" type="move" name="top"/>
    </contour>
    <contour>
      <point x="433" y="683" type="move" name="mid"/>
    </contour>
    <contour>
      <point x="609" y="0" type="move" name="bot"/>
    </contour>
  </outline>
</glyph>
<glyph name="u" format="1">
  <advance width="1427"/>
  <unicode hex="0075"/>
  <outline>
    <contour>
      <point x="552" y="-18" type="curve" smooth="yes"/>
      <point x="762" y="-18"/>
      <point x="862" y="71"/>
      <point x="925" y="129" type="curve"/>
      <point x="968" y="0" type="line"/>
      <point x="1283" y="0" type="line"/>
      <point x="1283" y="1162" type="line"/>
      <point x="871" y="1162" type="line"/>
      <point x="871" y="330" type="line"/>
      <point x="841" y="287"/>
      <point x="774" y="234"/>
      <point x="684" y="234" type="curve" smooth="yes"/>
      <point x="614" y="234"/>
      <point x="546" y="271"/>
      <point x="546" y="382" type="curve" smooth="yes"/>
      <point x="546" y="1162" type="line"/>
      <point x="134" y="1162" type="line"/>
      <point x="134" y="452" type="line" smooth="yes"/>
      <point x="134" y="80"/>
      <point x="329" y="-18"/>
    </contour>
    <contour>
      <point x="702" y="1162" type="move" name="top"/>
    </contour>
    <contour>
      <point x="1102" y="0" type="move" name="ogonek"/>
    </contour>
  </outline>
</glyph>
<glyph name="uni00B2" format="1">
  <advance width="1328"/>
  <unicode hex="00B2"/>
  <outline>
    <contour>
      <point x="317" y="731" type="line"/>
      <point x="1023" y="731" type="line"/>
      <point x="1023" y="949" type="line"/>
      <point x="712" y="949" type="line"/>
      <point x="811" y="1051" type="line" smooth="yes"/>
      <point x="961" y="1205"/>
      <point x="1047" y="1275"/>
      <point x="1047" y="1440" type="curve" smooth="yes"/>
      <point x="1047" y="1666"/>
      <point x="873" y="1761"/>
      <point x="678" y="1761" type="curve" smooth="yes"/>
      <point x="535" y="1761"/>
      <point x="381" y="1711"/>
      <point x="275" y="1624" type="curve"/>
      <point x="374" y="1425" type="line"/>
      <point x="462" y="1478"/>
      <point x="560" y="1511"/>
      <point x="635" y="1511" type="curve" smooth="yes"/>
      <point x="707" y="1511"/>
      <point x="758" y="1480"/>
      <point x="758" y="1407" type="curve" smooth="yes"/>
      <point x="758" y="1336"/>
      <point x="703" y="1287"/>
      <point x="625" y="1213" type="curve" smooth="yes"/>
      <point x="317" y="919" type="line"/>
    </contour>
  </outline>
</glyph>
<glyph name="paragraph" format="1">
  <advance width="1472"/>
  <unicode hex="00B6"/>
  <outline>
    <contour>
      <point x="611" y="-150" type="line"/>
      <point x="897" y="-150" type="line"/>
      <point x="897" y="1338" type="line"/>
      <point x="1072" y="1338" type="line"/>
      <point x="1072" y="-150" type="line"/>
      <point x="1355" y="-150" type="line"/>
      <point x="1355" y="1577" type="line"/>
      <point x="655" y="1577" type="line" smooth="yes"/>
      <point x="369" y="1577"/>
      <point x="87" y="1512"/>
      <point x="87" y="1118" type="curve" smooth="yes"/>
      <point x="87" y="746"/>
      <point x="291" y="636"/>
      <point x="611" y="636" type="curve"/>
    </contour>
  </outline>
</glyph>
<glyph name="uni00B9" format="1">
  <advance width="1089"/>
  <unicode hex="00B9"/>
  <outline>
    <contour>
      <point x="423" y="739" type="line"/>
      <point x="744" y="739" type="line"/>
      <point x="744" y="1721" type="line"/>
      <point x="451" y="1721" type="line"/>
      <point x="171" y="1602" type="line"/>
      <point x="261" y="1382" type="line"/>
      <point x="423" y="1459" type="line"/>
    </contour>
  </outline>
</glyph>
<glyph name="uni0311" format="1">
  <advance width="679"/>
  <unicode hex="0311"/>
  <outline>
    <contour>
      <point x="12" y="1297" type="curve"/>
      <point x="219" y="1297" type="line"/>
      <point x="222" y="1378"/>
      <point x="264" y="1415"/>
      <point x="353" y="1415" type="curve" smooth="yes"/>
      <point x="447" y="1415"/>
      <point x="491" y="1378"/>
      <point x="493" y="1297" type="curve"/>
      <point x="701" y="1297" type="line"/>
      <point x="688" y="1531"/>
      <point x="578" y="1638"/>
      <point x="352" y="1638" type="curve" smooth="yes"/>
      <point x="132" y="1638"/>
      <point x="25" y="1531"/>
    </contour>
    <contour>
      <point x="355" y="1162" type="move" name="_top"/>
    </contour>
  </outline>
</glyph>
<glyph name="Sigma" format="1">
  <advance width="1533"/>
  <unicode hex="03A3"/>
  <outline>
    <contour>
      <point x="156" y="0" type="line"/>
      <point x="1435" y="0" type="line"/>
      <point x="1435" y="311" type="line"/>
      <point x="673" y="311" type="line"/>
      <point x="1235" y="659" type="line"/>
      <point x="1235" y="966" type="line"/>
      <point x="702" y="1291" type="line"/>
      <point x="1375" y="1291" type="line"/>
      <point x="1375" y="1578" type="line"/>
      <point x="165" y="1578" type="line"/>
      <point x="165" y="1202" type="line"/>
      <point x="800" y="765" type="line"/>
      <point x="156" y="298" type="line"/>
    </contour>
  </outline>
</glyph>
<glyph name="pi" format="1">
  <advance width="1756"/>
  <unicode hex="03C0"/>
  <outline>
    <contour>
      <point x="1276" y="-18" type="curve"/>
      <point x="1396" y="-18"/>
      <point x="1486" y="13"/>
      <point x="1561" y="84" type="curve"/>
      <point x="1561" y="275" type="line"/>
      <point x="1511" y="255"/>
      <point x="1468" y="245"/>
      <point x="1433" y="245" type="curve" smooth="yes"/>
      <point x="1326" y="245"/>
      <point x="1281" y="334"/>
      <point x="1281" y="509" type="curve"/>
      <point x="1281" y="635"/>
      <point x="1295" y="721"/>
      <point x="1322" y="920" type="curve"/>
      <point x="1590" y="920" type="line"/>
      <point x="1590" y="1162" type="line"/>
      <point x="566" y="1162" type="line"/>
      <point x="220" y="1162"/>
      <point x="98" y="990"/>
      <point x="98" y="714" type="curve"/>
      <point x="308" y="714" type="line"/>
      <point x="324.719" y="880.258"/>
      <point x="388.886" y="915.386"/>
      <point x="492.488" y="919.544" type="curve" smooth="yes"/>
      <point x="500.429" y="919.863"/>
      <point x="508.6" y="920"/>
      <point x="517" y="920" type="curve"/>
      <point x="405" y="466" type="line" smooth="yes"/>
      <point x="331.235" y="165.576"/>
      <point x="225.793" y="193.276"/>
      <point x="100" y="209" type="curve"/>
      <point x="100" y="8" type="line"/>
      <point x="597.931" y="-83.7241"/>
      <point x="704.236" y="145.093"/>
      <point x="742" y="400" type="curve" smooth="yes"/>
      <point x="820" y="920" type="line"/>
      <point x="1010" y="920" type="line"/>
      <point x="972" y="658"/>
      <point x="934" y="513"/>
      <point x="934" y="347" type="curve"/>
      <point x="934" y="136"/>
      <point x="1003" y="-18"/>
    </contour>
  </outline>
</glyph>
<glyph name="Delta" format="1">
  <advance width="1511"/>
  <unicode hex="2206"/>
  <outline>
    <contour>
      <point x="10" y="0" type="line"/>
      <point x="1501" y="0" type="line"/>
      <point x="980" y="1578" type="line"/>
      <point x="532" y="1578" type="line"/>
    </contour>
    <contour>
      <point x="504" y="344" type="line"/>
      <point x="734" y="1175" type="line"/>
      <point x="916" y="344" type="line"/>
    </contour>
  </outline>
</glyph>
